# AST/ASF file generated using VICON BodyLanguage
# -----------------------------------------------
:version 1.10
:name VICON
:units
  mass 1.0
  length 0.45
  angle deg
:documentation
   .ast/.asf automatically generated from VICON data using
   VICON BodyBuilder and BodyLanguage model FoxedUp or BRILLIANT.MOD
:root
   order TX TY TZ RX RY RZ
   axis XYZ
   position 0 0 0  
   orientation 0 0 0 
:bonedata
  begin
     id 1 
     name lhipjoint
     direction 0.54267 -0.795011 0.271047 
     length 2.39899 
     axis 0 0 0  XYZ
  end
  begin
     id 2 
     name lfemur
     direction 0.34202 -0.939693 0  
     length 7.49701  
     axis 0 0 20  XYZ
    dof rx ry rz
    limits (-160.0 20.0)
           (-70.0 70.0)
           (-60.0 70.0)
  end
  begin
     id 3 
     name ltibia
     direction 0.34202 -0.939693 0   
     length 8.1668   
     axis 0 0 20   XYZ
    dof rx
    limits (-10.0 170.0)
  end
  begin
     id 4 
     name lfoot
     direction 0.0736283 -0.202292 0.976554   
     length 2.13544   
     axis -90 7.62852e-016 20   XYZ
    dof rx rz
    limits (-45.0 90.0)
           (-70.0 20.0)
  end
  begin
     id 5 
     name ltoes
     direction 1.53557e-011 -4.22024e-011 1   
     length 1.07411   
     axis -90 7.62852e-016 20   XYZ
    dof rx
    limits (-90.0 20.0)
  end
  begin
     id 6 
     name rhipjoint
     direction -0.538061 -0.797813 0.272002   
     length 2.39057  
     axis 0 0 0  XYZ 
  end
  begin
     id 7 
     name rfemur
     direction -0.34202 -0.939693 0   
     length 7.50152   
     axis 0 0 -20   XYZ
    dof rx ry rz
    limits (-160.0 20.0)
           (-70.0 70.0)
           (-70.0 60.0)
  end
  begin
     id 8 
     name rtibia
     direction -0.34202 -0.939693 0   
     length 8.05793   
     axis 0 0 -20   XYZ
    dof rx
    limits (-10.0 170.0)
 end
 begin
     id 9 
     name rfoot
     direction -0.0765195 -0.210236 0.974652   
     length 2.28698  
     axis -90 -7.62852e-016 -20   XYZ
    dof rx rz
    limits (-45.0 90.0)
           (-20.0 70.0)
  end
  begin
     id 10 
     name rtoes
     direction -1.53542e-011 -4.21847e-011 1   
     length 1.14762   
     axis -90 -7.62852e-016 -20   XYZ
    dof rx
    limits (-90.0 20.0)
  end
  begin
     id 11 
     name lowerback
     direction -0.0217239 0.996592 -0.0795765   
     length 2.08176   
     axis 0 0 0   XYZ
    dof rx ry rz
    limits (-20.0 45.0)
           (-30.0 30.0)
           (-30.0 30.0)
  end
  begin
     id 12 
     name upperback
     direction -0.00563773 0.999651 -0.0258155   
     length 2.08898   
     axis 0 0 0   XYZ
    dof rx ry rz
    limits (-20.0 45.0)
           (-30.0 30.0)
           (-30.0 30.0)
  end
  begin
     id 13 
     name thorax
     direction 0.0032706 0.999923 0.0119599   
     length 2.0968   
     axis 0 0 0   XYZ
    dof rx ry rz
    limits (-20.0 45.0)
           (-30.0 30.0)
           (-30.0 30.0)
  end
  begin
     id 14 
     name lowerneck
     direction -0.0285886 0.99568 0.0883427   
     length 1.81272   
     axis 0 0 0   XYZ
    dof rx ry rz
    limits (-20.0 45.0)
           (-30.0 30.0)
           (-30.0 30.0)
  end
  begin
     id 15 
     name upperneck
     direction 0.0807535 0.97985 -0.18268   
     length 1.82518   
     axis 0 0 0   XYZ
    dof rx ry rz
    limits (-20.0 45.0)
           (-30.0 30.0)
           (-30.0 30.0)
  end
  begin
     id 16
     name head
     direction 0.0236605 0.997053 -0.0729767  
     length 1.84443  
     axis 0 0 0   XYZ
    dof rx ry rz
    limits (-20.0 45.0)
           (-30.0 30.0)
           (-30.0 30.0)
  end
  begin
     id 17 
     name lclavicle
     direction 0.918986 0.39378 -0.0200683  
     length 3.27822  
     axis 0 0 0   XYZ
    dof ry rz
    limits (-20.0 10.0)
           (0.0 20.0)
  end
  begin
     id 18 
     name lhumerus
     direction 1 -4.4897e-011 2.09544e-027   
     length 5.5568   
     axis 180 -30 -90   XYZ
    dof rx ry rz
    limits (-60.0 90.0)
           (-90.0 90.0)
           (-90.0 90.0)
  end
  begin
     id 19
     name lradius
     direction 1 -4.48957e-011 -1.27696e-026   
     length 3.63979   
     axis 180 -30 -90   XYZ
    dof rx
    limits (-10.0 170.0)
  end
  begin
     id 20
     name lwrist
     direction 1 -4.49001e-011 -1.49001e-026   
     length 1.8199   
     axis 9.0955e-015 90 90   XYZ
    dof ry
    limits (-180.0 0.0)
 end
  begin
     id 21 
     name lhand
     direction 1 -4.48709e-011 -2.9758e-026   
     length 0.569419   
     axis 1.90115e-014 90 90   XYZ
    dof rx rz
    limits (-90.0 90.0)
           (-45.0 45.0)
  end
  begin
     id 22 
     name lfingers
     direction 1 -4.49175e-011 -5.96505e-026   
     length 0.45908   
     axis 3.80223e-014 90 90   XYZ
    dof rx
    limits (0.0 90.0)
  end
  begin
     id 23
     name lthumb
     direction 0.707107 -6.34864e-011 0.707107   
     length 0.65915   
     axis -90 45 -3.84942e-014   XYZ
    dof rx rz
    limits (-45.0 45.0)
           (-45.0 45.0)
  end
  begin
     id 24 
     name rclavicle
     direction -0.911913 0.396426 -0.106115   
     length 3.46301  
     axis 0 0 0   XYZ 
    dof ry rz
    limits (-10.0 20.0)
           (-20.0 0.0)
  end
  begin
     id 25 
     name rhumerus
     direction -1 -4.48965e-011 7.78516e-028  
     length 5.34339   
     axis 180 30 90   XYZ
    dof rx ry rz
    limits (-90.0 60.0)
           (-90.0 90.0)
           (-90.0 90.0)
  end
  begin
     id 26 
     name rradius
     direction -1 -4.48948e-011 -5.79823e-027   
     length 3.65101   
     axis 180 30 90   XYZ
    dof rx
    limits (-10.0 170.0)
  end
  begin
     id 27 
     name rwrist
     direction -1 -4.48995e-011 -1.48996e-026   
     length 1.8255   
     axis 9.0955e-015 -90 -90   XYZ
    dof ry
    limits (-180.0 0.0)
  end
  begin
     id 28
     name rhand
     direction -1 -4.48957e-011 -2.97937e-026   
     length 0.694249   
     axis 1.90115e-014 -90 -90   XYZ
    dof rx rz
    limits (-90.0 90.0)
           (-45.0 45.0)
  end
  begin
     id 29
     name rfingers
     direction -1 -4.4898e-011 -5.95943e-026   
     length 0.559721   
     axis 3.80223e-014 -90 -90   XYZ
    dof rx
    limits (0.0 90.0)
  end
  begin
     id 30
     name rthumb
     direction -0.707107 -6.34969e-011 0.707107   
     length 0.803651   
     axis -90 -45 3.84942e-014   XYZ
    dof rx rz
    limits (-45.0 45.0)
           (-45.0 45.0)
  end
:hierarchy
  begin
    root lhipjoint rhipjoint lowerback
    lhipjoint lfemur
    lfemur ltibia
    ltibia lfoot
    lfoot ltoes
    rhipjoint rfemur
    rfemur rtibia
    rtibia rfoot
    rfoot rtoes
    lowerback upperback
    upperback thorax
    thorax lowerneck lclavicle rclavicle
    lowerneck upperneck
    upperneck head
    lclavicle lhumerus
    lhumerus lradius
    lradius lwrist
    lwrist lhand lthumb
    lhand lfingers
    rclavicle rhumerus
    rhumerus rradius
    rradius rwrist
    rwrist rhand rthumb
    rhand rfingers
  end

#!OML:ASF H:\Terrain\Walking\May29\JustinRory\rory.ASF
:FULLY-SPECIFIED
:DEGREES
238
root 13.4096 15.6189 -0.547551 187.113 -57.856 175.255
lowerback 34.2371 7.45173 -4.2584
upperback 8.48402 5.8086 -4.77693
thorax -7.83355 2.16467 -4.84497
lowerneck 4.73195 19.3433 6.32767
upperneck 14.9869 29.1641 -26.5686
head 9.1426 13.1177 -7.17078
rclavicle 3.06128e-014 1.63003e-014
rhumerus -15.1457 29.8013 -71.3591
rradius 68.0754
rwrist -0.665204
rhand -7.51455 394.375
rfingers 7.12502
rthumb 18.3759 5.22255
lclavicle 3.06128e-014 1.63003e-014
lhumerus -11.8807 -10.3736 83.2036
lradius 78.8691
lwrist 6.72253
lhand -18.8848 24.5984
lfingers 7.12502
lthumb 7.41631 54.4484
rfemur -37.5721 -13.8808 11.7265
rtibia 77.0349
rfoot -30.1349 -23.4183
rtoes 8.69042
lfemur -47.1921 -10.8228 4.20083
ltibia 58.5747
lfoot -11.0491 -0.202557
ltoes -24.3266
239
root 13.4446 15.7145 -0.637438 186.809 -58.5089 175.435
lowerback 34.2051 7.25582 -4.33942
upperback 8.45846 5.57522 -4.62069
thorax -7.87988 2.06005 -4.55175
lowerneck 4.44846 19.4469 5.91962
upperneck 15.1922 29.3148 -26.4575
head 9.21353 13.1186 -7.03241
rclavicle 3.69739e-014 2.50469e-014
rhumerus -15.7518 29.9163 -71.9397
rradius 67.3444
rwrist -0.314046
rhand -7.51701 394.067
rfingers 7.12502
rthumb 18.3735 4.91504
lclavicle 3.69739e-014 2.50469e-014
lhumerus -13.0755 -9.66077 83.132
lradius 79.3141
lwrist 7.06741
lhand -18.9551 24.7055
lfingers 7.12502
lthumb 7.34849 54.5579
rfemur -36.5223 -14.024 12.2782
rtibia 75.8549
rfoot -29.8552 -23.8056
rtoes 8.47512
lfemur -46.8923 -10.6028 3.97848
ltibia 58.1311
lfoot -10.0604 0.419453
ltoes -18.0104
240
root 13.471 15.8141 -0.721172 186.642 -58.8769 175.662
lowerback 33.9444 7.19518 -4.48611
upperback 8.41434 5.52413 -4.42313
thorax -7.86031 2.04625 -4.23423
lowerneck 3.93716 19.5644 5.39319
upperneck 15.574 29.5353 -26.2954
head 9.37493 13.1092 -6.82868
rclavicle -1.19271e-015 3.29983e-014
rhumerus -16.4227 29.9309 -72.2907
rradius 66.6107
rwrist -0.084732
rhand -7.12332 394.347
rfingers 7.12502
rthumb 18.7522 5.2306
lclavicle -1.19271e-015 3.29983e-014
lhumerus -14.2155 -8.89039 83.2303
lradius 79.695
lwrist 7.24358
lhand -19.3754 24.4693
lfingers 7.12502
lthumb 6.94279 54.3355
rfemur -35.7303 -14.0523 12.8874
rtibia 74.6708
rfoot -29.6674 -24.1861
rtoes 8.388
lfemur -46.6319 -10.0997 3.61903
ltibia 57.7389
lfoot -9.21468 1.47796
ltoes -14.9406
241
root 13.4876 15.9163 -0.80987 186.213 -59.1678 176.204
lowerback 33.545 7.08732 -4.44482
upperback 8.36641 5.48467 -4.30755
thorax -7.77337 2.04122 -4.09614
lowerneck 3.59059 19.6905 4.78111
upperneck 15.6145 29.6621 -26.0061
head 9.32313 13.1113 -6.60272
rclavicle 8.34896e-015 -6.63941e-014
rhumerus -17.1059 29.9544 -72.8491
rradius 65.8658
rwrist 0.0750269
rhand -6.58939 394.472
rfingers 7.12502
rthumb 19.2657 5.40598
lclavicle 8.34896e-015 -6.63941e-014
lhumerus -15.3528 -8.11989 83.1895
lradius 80.0521
lwrist 7.10907
lhand -19.3544 25.0734
lfingers 7.12502
lthumb 6.96309 54.9389
rfemur -34.9433 -14.0003 13.6107
rtibia 73.4739
rfoot -29.4386 -24.5391
rtoes 9.22148
lfemur -46.2823 -9.64099 3.35793
ltibia 57.3786
lfoot -8.60534 3.17179
ltoes -11.9975
242
root 13.4986 16.0159 -0.900209 185.364 -59.4952 177.139
lowerback 33.1111 6.91604 -4.25685
upperback 8.39826 5.41891 -4.13207
thorax -7.58099 2.02064 -3.95482
lowerneck 3.2407 19.8433 4.03513
upperneck 15.5356 29.7985 -25.7269
head 9.21156 13.1245 -6.36482
rclavicle -3.69739e-014 5.52621e-014
rhumerus -17.6984 30.1418 -73.2069
rradius 65.3001
rwrist 0.433213
rhand -6.19566 394.358
rfingers 7.12502
rthumb 19.6443 5.33055
lclavicle -3.69739e-014 5.52621e-014
lhumerus -16.3565 -7.16893 83.2342
lradius 80.3425
lwrist 6.53452
lhand -18.994 25.9443
lfingers 7.12502
lthumb 7.31099 55.798
rfemur -34.0766 -13.8739 14.4664
rtibia 72.2248
rfoot -29.2279 -24.9514
rtoes 9.83244
lfemur -45.8862 -9.14148 3.27799
ltibia 57.0871
lfoot -8.07652 4.53122
ltoes -8.46701
243
root 13.5134 16.1075 -0.975708 184.935 -59.881 177.605
lowerback 32.7107 6.89609 -4.2938
upperback 8.44246 5.47707 -3.84176
thorax -7.40592 2.05706 -3.62295
lowerneck 2.83326 19.879 3.31882
upperneck 15.7335 29.8528 -25.4828
head 9.20749 13.0626 -6.15723
rclavicle 2.26615e-014 -3.57812e-014
rhumerus -18.3577 30.3231 -73.1706
rradius 64.694
rwrist 0.596214
rhand -5.76035 394.343
rfingers 7.12502
rthumb 20.0627 5.3592
lclavicle 2.26615e-014 -3.57812e-014
lhumerus -17.2723 -6.46768 83.7044
lradius 80.6168
lwrist 6.4471
lhand -19.4697 26.0942
lfingers 7.12502
lthumb 6.85179 55.9633
rfemur -33.2889 -13.8378 15.033
rtibia 71.0321
rfoot -28.8689 -25.4453
rtoes 9.41111
lfemur -45.6124 -8.36443 2.80283
ltibia 56.8596
lfoot -7.83369 5.17166
ltoes -4.80874
244
root 13.5261 16.1872 -1.03883 185.365 -60.2694 177.256
lowerback 32.2074 7.10174 -4.3421
upperback 8.41587 5.79461 -3.85385
thorax -7.23472 2.22367 -3.69122
lowerneck 2.77892 19.5685 3.71619
upperneck 16.1507 29.5092 -25.2887
head 9.3265 12.8821 -6.19535
rclavicle 1.35174e-014 -8.5875e-014
rhumerus -19.4082 29.2244 -73.746
rradius 63.7648
rwrist 0.634597
rhand -5.72337 393.691
rfingers 7.12502
rthumb 20.0983 4.71021
lclavicle 1.35174e-014 -8.5875e-014
lhumerus -18.0972 -6.87611 84.0448
lradius 80.8913
lwrist 7.23577
lhand -20.9673 25.8852
lfingers 7.12502
lthumb 5.40592 55.7962
rfemur -32.5872 -13.9865 15.1517
rtibia 69.9737
rfoot -28.9043 -25.3198
rtoes 10.527
lfemur -45.5795 -7.53294 1.78896
ltibia 56.7297
lfoot -7.85208 5.7597
ltoes -3.35053
245
root 13.5435 16.2649 -1.10142 185.881 -60.666 176.921
lowerback 31.393 6.96699 -4.34109
upperback 8.70519 5.71812 -3.85746
thorax -7.22889 2.17979 -3.8773
lowerneck 3.05101 19.5333 4.0194
upperneck 16.1186 29.4545 -25.4091
head 9.32578 12.8892 -6.3089
rclavicle 3.65764e-014 -1.86858e-014
rhumerus -20.184 28.5623 -74.4674
rradius 62.8211
rwrist 0.862402
rhand -5.93336 392.847
rfingers 7.12502
rthumb 19.8964 3.84578
lclavicle 3.65764e-014 -1.86858e-014
lhumerus -19.1071 -6.32887 83.9066
lradius 81.2304
lwrist 7.36905
lhand -20.6388 25.625
lfingers 7.12502
lthumb 5.72308 55.5277
rfemur -32.0468 -14.1041 15.319
rtibia 68.8783
rfoot -29.1764 -25.1933
rtoes 12.4932
lfemur -45.73 -6.91779 0.880683
ltibia 56.6347
lfoot -7.95493 5.93384
ltoes -2.74874
246
root 13.5666 16.3288 -1.16757 185.709 -61.0946 177.255
lowerback 31.1422 6.41395 -4.58451
upperback 8.51889 5.03105 -3.66096
thorax -7.38927 1.87355 -3.25619
lowerneck 3.05655 20.1037 2.54361
upperneck 15.5168 30.0134 -25.4053
head 8.98511 13.1281 -6.05318
rclavicle 8.70677e-014 -3.10104e-014
rhumerus -20.3915 30.1415 -74.5564
rradius 62.0756
rwrist 0.736674
rhand -5.69031 392.685
rfingers 7.12502
rthumb 20.13 3.70757
lclavicle 8.70677e-014 -3.10104e-014
lhumerus -20.3911 -3.85222 83.8074
lradius 81.6219
lwrist 7.10121
lhand -19.6945 25.4606
lfingers 7.12502
lthumb 6.6347 55.3367
rfemur -31.635 -14.0144 15.8994
rtibia 67.7812
rfoot -28.5079 -26.1262
rtoes 10.9699
lfemur -45.8806 -5.84736 0.263933
ltibia 56.6282
lfoot -7.86872 4.84084
ltoes -2.78134
247
root 13.579 16.4103 -1.23028 185.675 -61.503 177.389
lowerback 30.8649 6.6581 -4.19353
upperback 8.38092 5.49762 -3.80057
thorax -7.35585 2.11068 -3.79147
lowerneck 2.87237 19.6168 3.22876
upperneck 16.0893 29.4349 -24.8282
head 9.10785 12.8496 -6.01767
rclavicle -1.31198e-014 -1.19271e-015
rhumerus -21.9046 29.018 -74.9699
rradius 61.5024
rwrist 0.467269
rhand -5.63895 392.483
rfingers 7.12502
rthumb 20.1794 3.51129
lclavicle -1.31198e-014 -1.19271e-015
lhumerus -21.011 -4.59649 83.9843
lradius 81.7467
lwrist 7.63941
lhand -19.6596 25.8249
lfingers 7.12502
lthumb 6.66838 55.6999
rfemur -31.0199 -14.1279 16.3465
rtibia 66.5955
rfoot -27.4557 -26.9491
rtoes 8.42076
lfemur -45.8855 -4.19316 -0.752995
ltibia 56.5975
lfoot -7.46537 2.84282
ltoes -4.87612
248
root 13.5816 16.4746 -1.289 185.793 -61.8566 177.462
lowerback 30.3577 7.0132 -3.76181
upperback 8.26154 6.13944 -3.95016
thorax -7.17022 2.43656 -4.39592
lowerneck 2.88355 19.0396 4.39806
upperneck 16.8846 28.8032 -24.4833
head 9.38575 12.5582 -6.14972
rclavicle -2.38542e-014 3.61788e-014
rhumerus -23.4594 27.2346 -75.4373
rradius 60.7186
rwrist 0.580931
rhand -6.11979 392.281
rfingers 7.12502
rthumb 19.7172 3.26075
lclavicle -2.38542e-014 3.61788e-014
lhumerus -21.678 -5.73948 84.2342
lradius 81.992
lwrist 8.18458
lhand -19.2759 26.2589
lfingers 7.12502
lthumb 7.03883 56.1219
rfemur -30.5108 -14.3192 16.6899
rtibia 65.5569
rfoot -27.0073 -26.92
rtoes 9.46611
lfemur -45.9574 -3.53771 -1.56674
ltibia 56.6701
lfoot -7.88826 1.93321
ltoes -6.61322
249
root 13.5789 16.5376 -1.34718 185.705 -62.0182 177.45
lowerback 30.1633 7.46809 -3.47729
upperback 8.19501 6.81652 -4.08022
thorax -7.0719 2.76846 -4.92674
lowerneck 2.94349 18.5134 5.64221
upperneck 17.5788 28.2476 -24.3695
head 9.68708 12.3159 -6.36985
rclavicle 5.80451e-014 -7.99114e-014
rhumerus -24.8321 24.8812 -75.9414
rradius 59.7983
rwrist 1.29934
rhand -6.33016 392.49
rfingers 7.12502
rthumb 19.515 3.44922
lclavicle 5.80451e-014 -7.99114e-014
lhumerus -21.9792 -6.43419 84.9325
lradius 81.7855
lwrist 8.04969
lhand -20.2066 25.1979
lfingers 7.12502
lthumb 6.14038 55.0889
rfemur -29.7419 -14.2122 16.8271
rtibia 64.5809
rfoot -27.0322 -26.7973
rtoes 11.6704
lfemur -45.534 -4.07281 -2.16856
ltibia 56.7709
lfoot -9.27549 2.40762
ltoes -9.01298
250
root 13.5693 16.6083 -1.39497 186.43 -62.2966 176.743
lowerback 29.8165 7.76292 -3.31991
upperback 8.07184 7.2538 -4.38116
thorax -6.96105 2.99299 -5.47719
lowerneck 3.02996 18.0597 6.62267
upperneck 17.9616 27.6951 -24.1725
head 9.81116 12.1043 -6.53509
rclavicle -5.26779e-014 6.44062e-014
rhumerus -26.3654 22.6819 -76.3611
rradius 59.2945
rwrist 1.83472
rhand -6.44848 392.419
rfingers 7.12502
rthumb 19.4012 3.36683
lclavicle -5.26779e-014 6.44062e-014
lhumerus -22.6199 -7.13642 85.2016
lradius 81.9923
lwrist 8.38493
lhand -20.8602 24.7897
lfingers 7.12502
lthumb 5.50934 54.6981
rfemur -29.1502 -14.3338 16.572
rtibia 63.679
rfoot -27.8066 -26.2935
rtoes 13.6315
lfemur -45.4842 -3.36188 -3.56278
ltibia 56.9558
lfoot -10.0644 2.03447
ltoes -12.371
